HIERARCHY
ROOT Hips
{
	OFFSET 0.0000 0.0000 0.0000
	CHANNELS 6 Xposition Yposition Zposition Zrotation Xrotation Yrotation
	JOINT Ab
	{
		OFFSET -0.0000 8.0846 -0.0000
		CHANNELS 3 Zrotation Xrotation Yrotation
		JOINT Chest
		{
			OFFSET -0.0000 25.0068 -0.0000
			CHANNELS 3 Zrotation Xrotation Yrotation
			JOINT Neck
			{
				OFFSET -0.0000 25.0068 0.0000
				CHANNELS 3 Zrotation Xrotation Yrotation
				JOINT Head
				{
					OFFSET -0.0000 10.7556 0.0000
					CHANNELS 3 Zrotation Xrotation Yrotation
					End Site
					{
						OFFSET -0.0000 16.6222 0.0000
					}
				}
			}
			JOINT LeftCollar
			{
				OFFSET -0.0000 25.0068 0.0000
				CHANNELS 3 Zrotation Xrotation Yrotation
				JOINT LeftShoulder
				{
					OFFSET 19.5556 -0.0000 0.0000
					CHANNELS 3 Zrotation Xrotation Yrotation
					JOINT LeftElbow
					{
						OFFSET 27.1828 0.0000 0.0000
						CHANNELS 3 Zrotation Xrotation Yrotation
						JOINT LeftWrist
						{
							OFFSET 23.3157 0.0000 0.0000
							CHANNELS 3 Zrotation Xrotation Yrotation
							End Site
							{
								OFFSET 0.0000 -14.6667 0.0000
							}
						}
					}
				}
			}
			JOINT RightCollar
			{
				OFFSET -0.0000 25.0068 0.0000
				CHANNELS 3 Zrotation Xrotation Yrotation
				JOINT RightShoulder
				{
					OFFSET -19.5556 0.0000 0.0000
					CHANNELS 3 Zrotation Xrotation Yrotation
					JOINT RightElbow
					{
						OFFSET -27.1828 0.0000 0.0000
						CHANNELS 3 Zrotation Xrotation Yrotation
						JOINT RightWrist
						{
							OFFSET -23.3157 0.0000 0.0000
							CHANNELS 3 Zrotation Xrotation Yrotation
							End Site
							{
								OFFSET -0.0000 -14.6667 0.0000
							}
						}
					}
				}
			}
		}
	}
	JOINT LeftHip
	{
		OFFSET 11.7333 0.0000 0.0000
		CHANNELS 3 Zrotation Xrotation Yrotation
		JOINT LeftKnee
		{
			OFFSET -0.0000 -40.8688 0.0000
			CHANNELS 3 Zrotation Xrotation Yrotation
			JOINT LeftAnkle
			{
				OFFSET -0.0000 -44.4337 0.0000
				CHANNELS 3 Zrotation Xrotation Yrotation
				End Site
				{
					OFFSET -0.0000 -4.8889 16.6222
				}
			}
		}
	}
	JOINT RightHip
	{
		OFFSET -11.7333 0.0000 0.0000
		CHANNELS 3 Zrotation Xrotation Yrotation
		JOINT RightKnee
		{
			OFFSET -0.0000 -40.8688 0.0000
			CHANNELS 3 Zrotation Xrotation Yrotation
			JOINT RightAnkle
			{
				OFFSET -0.0000 -44.4337 0.0000
				CHANNELS 3 Zrotation Xrotation Yrotation
				End Site
				{
					OFFSET -0.0000 -4.8889 16.6222
				}
			}
		}
	}
}
MOTION
Frames: 14
Frame Time: 0.010000
1.6842 88.1454 76.2538 1.0827 358.9926 182.3653 2.1611 4.6145 0.4677 355.9967 7.0190 0.7989 2.7018 339.1963 358.2348 0.5872 7.0226 357.6969 340.5390 358.4115 9.2232 299.9744 10.7981 8.8934 10.4874 356.2480 320.3389 84.4123 356.6322 332.4964 20.1215 358.9544 354.1391 30.7925 46.8804 35.5585 326.5664 347.8045 39.5480 274.5822 348.6983 7.2512 1.5955 351.1472 354.9406 357.3465 17.8039 357.2464 353.4263 349.3771 23.0522 1.9455 347.5231 1.0489 359.3553 27.4614 12.3562 0.9606 336.0142 334.3689 
1.5313 88.0798 75.7390 1.0827 359.2508 182.2949 1.8919 4.5632 0.4868 356.0700 7.2066 0.8090 2.7694 339.0973 358.1666 0.5732 7.3351 357.6129 340.4159 358.4195 9.0692 300.0642 10.9022 8.8808 10.4679 356.2522 320.5556 84.5460 356.5826 332.7798 20.2360 358.9695 354.1596 30.4994 46.5636 35.4880 327.1639 347.9773 40.0416 275.1852 348.7431 8.5466 1.5597 351.6804 355.0917 357.2971 17.9473 357.2274 353.5576 349.0413 22.9709 1.9311 347.4852 0.9403 359.2289 28.6142 12.6476 355.6183 339.5197 333.5155 
1.3784 88.0275 75.2420 1.0321 359.4703 182.2449 1.6514 4.5818 0.4432 356.0243 7.2190 0.7576 2.6900 339.1770 358.0929 0.8866 7.4892 357.5389 340.3301 358.4132 9.0254 300.1056 11.3246 8.8560 10.6478 356.1586 320.7821 84.6249 356.6371 333.2564 20.4096 358.9354 354.1355 29.9567 46.6465 35.7063 327.8611 348.2307 40.0648 274.8031 348.6268 9.0973 1.4707 352.1664 355.2469 357.2480 18.1021 357.1300 353.7179 348.6836 22.9058 1.8886 347.2730 0.9156 359.1198 29.9761 12.5528 354.0354 340.2450 333.4035 
1.2315 87.9709 74.7640 0.9689 359.6677 182.2638 1.6722 4.4837 0.2045 355.6264 7.4783 0.5322 2.5048 339.1175 358.0661 1.4415 7.6616 357.5146 340.5258 358.4190 9.0169 300.0225 11.0690 8.6837 10.4877 356.2622 320.8709 84.7706 356.7283 333.2449 20.6215 358.9461 354.3414 29.7941 46.5643 35.6364 328.5824 348.4838 40.2069 275.0712 348.5387 10.1542 1.3801 352.6124 355.2684 357.1544 18.2610 357.0226 353.9540 348.3479 22.9060 1.7852 346.9695 1.0412 359.2559 31.4225 12.0895 354.1109 339.7509 333.3980 
1.0883 87.9041 74.3028 0.9294 359.7702 182.2924 1.4884 4.4685 0.1240 355.5290 7.4360 0.4532 2.4769 339.0914 358.1001 1.6908 7.9261 357.5327 340.5438 358.4070 9.1092 300.0461 11.2772 8.4520 10.4574 356.2835 321.1727 84.8437 356.6753 333.3094 20.6917 358.9672 354.4397 29.8214 46.5866 35.4412 329.1912 348.6664 40.3452 275.7729 348.6026 11.2223 1.3103 352.9929 355.3402 357.0835 18.3536 357.0138 354.1086 348.0486 22.6880 1.6906 346.4612 1.1942 359.4038 33.0680 11.6899 354.2247 339.4455 333.4055 
0.9539 87.8160 73.8451 0.8662 359.8730 182.3113 1.1710 4.5623 0.1531 355.5533 7.1784 0.4643 2.5673 339.2347 358.0381 1.7031 8.1253 357.4424 340.4461 358.4334 8.9811 300.2065 11.6230 8.3819 10.5062 356.2721 321.3435 84.8055 356.6925 333.3947 20.7737 358.9723 354.3059 30.0901 46.5967 35.0125 329.9267 348.9323 40.4901 275.7756 348.6185 12.2072 1.2396 353.4316 355.4039 356.9804 18.3408 356.8912 354.5946 347.9618 22.6934 1.5314 345.8886 1.3851 359.7574 34.8140 10.8428 354.1787 339.2031 333.5852 
0.8048 87.7279 73.3972 0.8227 0.0307 182.3920 1.0726 4.6681 359.9961 355.4086 7.0816 0.3143 2.5248 339.2648 357.9754 1.8801 8.3689 357.3755 340.4184 358.4391 8.9301 300.2699 12.3962 8.1482 10.8667 356.0942 321.4728 84.6947 356.7259 333.9043 20.8776 358.9444 354.1971 30.5999 46.2975 34.4058 330.8118 349.2534 40.7939 276.2483 348.6034 13.4495 1.1567 353.9262 355.4219 356.9162 18.2832 356.8027 354.8175 347.6981 22.6586 1.3198 345.3047 1.3894 0.2164 36.6368 9.6572 354.0601 338.9705 334.0852 
0.6512 87.6537 72.9443 0.8064 0.1968 182.4457 1.0335 4.7789 359.8402 355.2340 7.0013 0.1805 2.5680 339.2645 358.0368 1.9807 8.6154 357.4247 340.3883 358.4269 9.0553 300.3372 13.0307 7.7998 11.1442 355.9727 321.5865 84.6807 356.7531 334.3948 20.9854 358.9319 354.2340 31.2285 45.9840 33.6588 331.8246 349.6037 41.1617 276.5245 348.6188 14.5932 1.0938 354.4752 355.3984 356.8581 18.1530 356.7385 354.9530 347.4524 22.6445 1.1165 344.6876 1.3218 0.7477 38.4767 8.4885 353.9111 338.8448 334.5562 
0.5068 87.5922 72.4953 0.8090 0.2743 182.4490 0.9078 4.7925 359.8822 355.1931 6.9759 0.1967 2.6796 339.2302 358.0619 1.8702 8.8253 357.4280 340.3403 358.4338 8.9903 300.4440 13.2773 7.4186 11.1355 356.0288 321.5953 84.9364 356.7127 334.6420 20.9810 358.9063 354.0256 31.6369 46.0580 33.2873 332.4529 349.7549 41.1886 276.9454 348.5501 15.3376 1.0560 354.9621 355.3763 356.7910 17.9666 356.8206 355.1098 347.2790 22.5406 0.9214 343.9657 1.2458 1.2045 40.3204 7.7175 354.1800 339.1335 334.9028 
0.3607 87.5425 72.0503 0.7991 0.3210 182.4733 0.8375 4.7937 359.8104 355.1280 6.9022 0.1522 2.6477 339.3329 357.9838 1.8660 8.9330 357.3546 340.2795 358.4493 8.7360 300.5449 13.5151 7.1108 11.1407 356.0476 321.6537 85.2168 356.6021 334.8908 21.0203 358.8657 353.7312 32.1806 46.1356 32.6911 333.0629 349.9389 41.2716 277.2036 348.5566 15.9259 0.9794 355.4274 355.4099 356.7980 17.7673 356.6553 355.2264 347.0580 22.6709 0.6910 343.1915 0.9673 1.5603 42.1500 6.9728 355.5323 339.0599 335.1960 
0.2233 87.5114 71.6046 0.8093 0.3498 182.4848 0.6795 4.8366 359.8264 355.2582 6.6977 0.0667 2.6112 339.5219 358.0120 1.8703 9.0456 357.3999 340.0659 358.4574 8.6797 300.6820 14.0639 6.7660 11.3783 355.9412 321.7200 85.3104 356.7789 335.4778 21.0897 358.8292 353.6497 33.2061 45.6423 31.4688 334.1113 350.3483 41.7565 277.5865 348.7982 16.7209 0.9245 355.9267 355.3572 356.7908 17.4717 356.5062 355.2274 346.7941 22.8686 0.4679 342.4397 0.7153 2.1686 43.6766 5.0126 355.9392 338.7563 335.3663 
0.0992 87.4924 71.1402 0.8342 0.4623 182.5617 0.6165 4.9493 359.6908 355.2996 6.5153 0.0231 2.5127 339.6429 357.8872 1.7393 9.3231 357.2896 339.9388 358.4808 8.3875 300.7642 14.7659 6.4579 11.6900 355.8098 321.8614 85.7230 356.6457 336.1434 21.0871 358.7898 353.2872 33.7763 46.1087 30.8088 334.4630 350.3448 41.6675 277.7655 348.8632 16.7644 0.8994 356.5524 355.2269 356.7840 17.0900 356.4027 355.3204 346.6765 22.9789 0.2339 341.8736 0.3783 2.6493 44.8315 3.9475 355.9243 338.8885 335.6376 
-0.0082 87.4734 70.6594 0.8932 0.4527 182.5995 0.6000 4.9129 359.6353 355.3116 6.3275 359.9254 2.5503 339.9100 357.9659 1.7252 9.3767 357.3841 339.8086 358.4949 8.3200 300.8513 15.0398 6.1041 11.8676 355.7836 321.9102 86.0247 356.6532 336.5414 21.0991 358.7467 353.1937 34.4352 46.6853 29.9401 334.7206 350.3887 41.6180 277.9724 349.0149 17.0097 0.9300 357.0990 355.1271 356.7625 16.6353 356.5200 355.3349 346.5632 22.8978 0.0486 341.2601 0.1364 3.0732 45.5844 3.0296 354.4908 339.5443 335.7615 
-0.1131 87.4840 70.1685 0.9860 0.4698 182.6579 0.6415 4.9105 359.5485 355.3570 6.1592 359.8213 2.4899 340.1236 357.9691 1.6461 9.5055 357.4011 339.6823 358.5087 8.2105 300.8976 15.7552 5.6434 12.3551 355.5867 322.1297 86.0670 356.5479 337.3291 21.1177 358.7211 353.0478 35.5807 46.7394 28.5570 335.2043 350.5708 41.8430 278.3103 349.4917 17.4724 0.9801 357.7132 355.1607 356.8203 16.1177 356.5243 355.2975 346.5021 22.7846 359.8900 340.7307 359.8285 3.4253 46.0012 2.8037 354.8621 339.1498 335.7623 
